<svg width="22" height="21" viewBox="0 0 22 21" version="1.1" xmlns="http://www.w3.org/2000/svg" xmlns:xlink="http://www.w3.org/1999/xlink">
<title>Group 23</title>
<desc>Created using Figma</desc>
<g id="Canvas" transform="translate(23717 32826)">
<g id="Group 23">
<g id="Union">
<use xlink:href="#path0_fill" transform="matrix(0.864445 -0.502728 0.518092 0.855325 -23719 -32820.9)" fill="#03CEA4"/>
</g>
</g>
</g>
<defs>
<path id="path0_fill" fill-rule="evenodd" d="M 8.06732 0C 5.98977 0 4.30559 1.66336 4.30559 3.71524L 4.30559 5.05809L 0 5.05809L 0 18.5762L 16.1346 18.5762L 16.1346 5.05809L 11.829 5.05809L 11.829 3.71524C 11.829 1.66336 10.1449 0 8.06732 0ZM 11.3758 5.50571L 11.3758 6.75904L 11.829 6.75904L 11.829 5.50571L 15.6814 5.50571L 15.6814 18.1286L 0.45322 18.1286L 0.45322 5.50571L 4.30559 5.50571L 4.30559 6.75904L 4.75881 6.75904L 4.75881 5.50571L 11.3758 5.50571ZM 11.3758 5.05809L 11.3758 3.71524C 11.3758 1.9106 9.89456 0.447619 8.06732 0.447619C 6.24008 0.447619 4.75881 1.9106 4.75881 3.71524L 4.75881 5.05809L 11.3758 5.05809Z"/>
</defs>
</svg>
