<svg width="254" height="31" viewBox="0 0 254 31" version="1.1" xmlns="http://www.w3.org/2000/svg" xmlns:xlink="http://www.w3.org/1999/xlink">
<title>Component</title>
<desc>Created using Figma</desc>
<g id="Canvas" transform="translate(23719 32829)">
<g id="Component">
<g id="MYSHOPOVER">
<use xlink:href="#path0_fill" transform="translate(-23673.4 -32819.5)"/>
<use xlink:href="#path1_fill" transform="translate(-23673.4 -32819.5)"/>
<use xlink:href="#path2_fill" transform="translate(-23673.4 -32819.5)"/>
<use xlink:href="#path3_fill" transform="translate(-23673.4 -32819.5)"/>
<use xlink:href="#path4_fill" transform="translate(-23673.4 -32819.5)"/>
<use xlink:href="#path5_fill" transform="translate(-23673.4 -32819.5)"/>
<use xlink:href="#path6_fill" transform="translate(-23673.4 -32819.5)"/>
<use xlink:href="#path7_fill" transform="translate(-23673.4 -32819.5)"/>
<use xlink:href="#path8_fill" transform="translate(-23673.4 -32819.5)"/>
<use xlink:href="#path9_fill" transform="translate(-23673.4 -32819.5)"/>
</g>
<g id="Group 23">
<g id="Union">
<use xlink:href="#path10_fill" transform="matrix(0.859594 -0.510978 0.509808 0.860288 -23719 -32818.5)" fill="#03CEA4"/>
</g>
</g>
</g>
</g>
<defs>
<path id="path0_fill" d="M 14.7666 0.20541L 14.7666 16.2958L 13.8323 16.2958L 13.8551 2.21386L 7.79349 13.7853L 7.0187 13.7853L 0.911519 2.30515L 0.934307 16.2958L 0 16.2958L 0 0.20541L 0.820368 0.20541L 7.40609 12.8723L 13.9235 0.20541L 14.7666 0.20541Z"/>
<path id="path1_fill" d="M 29.9626 8.49027L 29.9626 16.2958L 29.0055 16.2958L 29.0055 8.46745L 22.8984 0.20541L 24.015 0.20541L 29.5069 7.66863L 34.9988 0.20541L 36.0698 0.20541L 29.9626 8.49027Z"/>
<path id="path2_fill" d="M 49.2653 16.5013C 48.0499 16.5013 46.8802 16.3415 45.756 16.022C 44.6317 15.6872 43.6974 15.2308 42.953 14.6526L 44.0924 12.1192C 45.642 13.1995 47.3815 13.7396 49.3109 13.7396C 50.3136 13.7396 51.0808 13.5799 51.6125 13.2603C 52.1594 12.9256 52.4328 12.4691 52.4328 11.8909C 52.4328 11.3736 52.1822 10.9704 51.6808 10.6813C 51.1947 10.3922 50.3211 10.1107 49.0602 9.83685C 47.6474 9.54775 46.5156 9.19779 45.6648 8.78698C 44.8292 8.37616 44.214 7.87404 43.819 7.28064C 43.4392 6.67202 43.2493 5.92645 43.2493 5.04395C 43.2493 4.07016 43.5151 3.20287 44.0469 2.44209C 44.5938 1.68132 45.3534 1.08791 46.3257 0.661876C 47.2979 0.220626 48.4222 0 49.6983 0C 50.8377 0 51.9315 0.167371 52.9797 0.502113C 54.0432 0.836855 54.8863 1.28571 55.5092 1.84869L 54.3698 4.38208C 52.8962 3.30177 51.3466 2.76162 49.7211 2.76162C 48.7944 2.76162 48.0651 2.94421 47.5334 3.30938C 47.0017 3.65934 46.7358 4.14623 46.7358 4.77007C 46.7358 5.13524 46.8346 5.43956 47.0321 5.683C 47.2448 5.91124 47.5866 6.11665 48.0575 6.29923C 48.5437 6.48182 49.2273 6.67201 50.1085 6.86982C 52.1746 7.32628 53.6558 7.91208 54.5521 8.62721C 55.4636 9.34234 55.9194 10.3314 55.9194 11.5942C 55.9194 13.1158 55.3345 14.3178 54.1647 15.2003C 52.9949 16.0676 51.3618 16.5013 49.2653 16.5013Z"/>
<path id="path3_fill" d="M 78.7841 0.20541L 78.7841 16.2958L 75.2976 16.2958L 75.2976 9.54014L 67.8915 9.54014L 67.8915 16.2958L 64.4049 16.2958L 64.4049 0.20541L 67.8915 0.20541L 67.8915 6.71005L 75.2976 6.71005L 75.2976 0.20541L 78.7841 0.20541Z"/>
<path id="path4_fill" d="M 95.2936 16.5013C 93.6985 16.5013 92.3084 16.1665 91.1234 15.497C 89.9537 14.8123 89.0497 13.8538 88.4117 12.6213C 87.7736 11.3736 87.4546 9.91292 87.4546 8.23922C 87.4546 6.56551 87.7736 5.11242 88.4117 3.87996C 89.0497 2.63229 89.9537 1.67371 91.1234 1.00423C 92.3084 0.334742 93.6985 0 95.2936 0C 96.8888 0 98.2713 0.334742 99.4411 1.00423C 100.626 1.67371 101.538 2.63229 102.176 3.87996C 102.814 5.11242 103.133 6.56551 103.133 8.23922C 103.133 9.91292 102.814 11.3736 102.176 12.6213C 101.538 13.8538 100.626 14.8123 99.4411 15.497C 98.2713 16.1665 96.8888 16.5013 95.2936 16.5013ZM 95.2936 13.7396C 96.6305 13.7396 97.6788 13.268 98.4384 12.3246C 99.2132 11.3812 99.6006 10.0194 99.6006 8.23922C 99.6006 6.459 99.2208 5.10481 98.4612 4.17667C 97.7016 3.2333 96.6457 2.76162 95.2936 2.76162C 93.9416 2.76162 92.8857 3.2333 92.1261 4.17667C 91.3817 5.10481 91.0095 6.459 91.0095 8.23922C 91.0095 10.0194 91.3893 11.3812 92.1489 12.3246C 92.9085 13.268 93.9567 13.7396 95.2936 13.7396Z"/>
<path id="path5_fill" d="M 111.772 0.20541L 119.155 0.20541C 120.902 0.20541 122.262 0.646661 123.234 1.52916C 124.206 2.41166 124.693 3.64412 124.693 5.22654C 124.693 6.80895 124.206 8.04141 123.234 8.92391C 122.262 9.80642 120.902 10.2477 119.155 10.2477L 115.327 10.2477L 115.327 16.2958L 111.772 16.2958L 111.772 0.20541ZM 118.699 7.55452C 120.477 7.55452 121.366 6.78613 121.366 5.24936C 121.366 4.45815 121.145 3.87236 120.705 3.49197C 120.264 3.11158 119.596 2.92138 118.699 2.92138L 115.327 2.92138L 115.327 7.55452L 118.699 7.55452Z"/>
<path id="path6_fill" d="M 139.869 16.4784C 138.441 16.4784 137.195 16.1513 136.131 15.497C 135.083 14.8275 134.27 13.8766 133.693 12.6441C 133.131 11.3964 132.85 9.93575 132.85 8.26204C 132.85 6.57311 133.131 5.11242 133.693 3.87996C 134.255 2.63229 135.06 1.68132 136.109 1.02705C 137.172 0.357565 138.425 0.0228233 139.869 0.0228233C 141.312 0.0228233 142.565 0.357565 143.629 1.02705C 144.692 1.68132 145.505 2.62468 146.067 3.85714C 146.629 5.0896 146.91 6.55029 146.91 8.23922C 146.91 9.92814 146.622 11.3964 146.044 12.6441C 145.482 13.8766 144.669 14.8275 143.606 15.497C 142.558 16.1513 141.312 16.4784 139.869 16.4784ZM 139.869 15.5427C 141.783 15.5427 143.264 14.9036 144.312 13.6255C 145.361 12.3474 145.885 10.552 145.885 8.23922C 145.885 5.92645 145.361 4.13863 144.312 2.87574C 143.279 1.59763 141.798 0.958579 139.869 0.958579C 137.97 0.958579 136.496 1.59763 135.448 2.87574C 134.4 4.13863 133.875 5.92645 133.875 8.23922C 133.875 10.552 134.4 12.3474 135.448 13.6255C 136.496 14.9036 137.97 15.5427 139.869 15.5427Z"/>
<path id="path7_fill" d="M 169.067 0.20541L 162.14 16.2958L 161.205 16.2958L 154.323 0.20541L 155.303 0.20541L 161.684 15.0862L 168.064 0.20541L 169.067 0.20541Z"/>
<path id="path8_fill" d="M 177.428 0.20541L 187.091 0.20541L 187.091 1.09552L 178.386 1.09552L 178.386 7.69146L 186.635 7.69146L 186.635 8.58156L 178.386 8.58156L 178.386 15.4057L 187.091 15.4057L 187.091 16.2958L 177.428 16.2958L 177.428 0.20541Z"/>
<path id="path9_fill" d="M 208.424 16.2958L 207.376 16.2958L 204.664 11.1378C 204.269 10.377 203.813 9.85967 203.297 9.58579C 202.78 9.31191 202.059 9.17497 201.132 9.17497L 197.417 9.17497L 197.417 16.2958L 196.483 16.2958L 196.483 0.20541L 202.681 0.20541C 204.337 0.20541 205.614 0.585799 206.51 1.34658C 207.421 2.09214 207.877 3.19526 207.877 4.65596C 207.877 5.90363 207.505 6.90025 206.761 7.64581C 206.031 8.39137 204.991 8.84023 203.639 8.99239C 204.018 9.11411 204.353 9.31952 204.641 9.60861C 204.945 9.89771 205.234 10.2857 205.507 10.7726L 208.424 16.2958ZM 202.704 8.26204C 205.484 8.26204 206.874 7.0524 206.874 4.63313C 206.874 3.44632 206.533 2.56382 205.849 1.98563C 205.165 1.39222 204.117 1.09552 202.704 1.09552L 197.44 1.09552L 197.44 8.26204L 202.704 8.26204Z"/>
<path id="path10_fill" fill-rule="evenodd" d="M 10.2521 0C 7.61187 0 5.4716 2.13611 5.4716 4.77116L 5.4716 6.49568L 0 6.49568L 0 23.8558L 20.5041 23.8558L 20.5041 6.49568L 15.0325 6.49568L 15.0325 4.77116C 15.0325 2.13611 12.8922 0 10.2521 0ZM 14.4565 7.07051L 14.4565 8.68006L 15.0325 8.68006L 15.0325 7.07051L 19.9281 7.07051L 19.9281 23.281L 0.575958 23.281L 0.575958 7.07051L 5.4716 7.07051L 5.4716 8.68006L 6.04756 8.68006L 6.04756 7.07051L 14.4565 7.07051ZM 14.4565 6.49568L 14.4565 4.77116C 14.4565 2.45362 12.5741 0.574839 10.2521 0.574839C 7.92997 0.574839 6.04756 2.45362 6.04756 4.77116L 6.04756 6.49568L 14.4565 6.49568Z"/>
</defs>
</svg>
